<svg width="757" height="180" viewBox="0 0 757 180" fill="none" xmlns="http://www.w3.org/2000/svg">
<g id="Frame 2">
<rect width="757" height="180" fill="white"/>
<path id="AcademEase" d="M62.3232 97.2031H85.9023L74.0859 63.5264L62.3232 97.2031ZM40.6777 129L68.5 52.5693H79.7256L107.655 129H97.3428L89.2861 106.549H58.832L50.7754 129H40.6777ZM155.243 89.5225C155.028 85.2972 153.686 82.0387 151.215 79.7471C148.78 77.4554 145.432 76.3096 141.171 76.3096C136.229 76.3096 132.398 78.3148 129.677 82.3252C126.991 86.2998 125.648 91.9574 125.648 99.2979C125.648 106.817 126.973 112.547 129.623 116.485C132.273 120.424 136.122 122.394 141.171 122.394C145.146 122.394 148.44 121.104 151.054 118.526C153.668 115.912 155.207 112.368 155.673 107.892H164.911C164.481 114.981 162.082 120.621 157.714 124.811C153.381 129 147.759 131.095 140.849 131.095C132.935 131.095 126.776 128.32 122.372 122.77C117.968 117.219 115.766 109.503 115.766 99.6201C115.766 89.7373 118.021 81.9671 122.533 76.3096C127.045 70.652 133.257 67.8232 141.171 67.8232C148.153 67.8232 153.775 69.7926 158.036 73.7314C162.333 77.6344 164.589 82.8981 164.804 89.5225H155.243ZM217.87 108.321V98.9756C215.435 100.336 211.353 101.41 205.624 102.198C203.583 102.485 202.007 102.735 200.897 102.95C197.532 103.595 195.15 104.651 193.754 106.119C192.393 107.587 191.713 109.754 191.713 112.618C191.713 115.805 192.519 118.222 194.13 119.869C195.741 121.48 198.122 122.286 201.273 122.286C206.072 122.286 210.028 120.979 213.144 118.365C216.295 115.751 217.87 112.403 217.87 108.321ZM218.998 121.319C216.205 124.47 213.197 126.834 209.975 128.409C206.752 129.985 203.297 130.772 199.608 130.772C194.094 130.772 189.779 129.251 186.664 126.207C183.585 123.128 182.045 118.884 182.045 113.478C182.045 107.498 183.638 103.058 186.825 100.157C190.012 97.221 195.526 95.2874 203.368 94.3564C204.335 94.249 205.696 94.0879 207.45 93.873C214.612 93.0853 218.192 90.2744 218.192 85.4404C218.192 82.361 217.19 80.0872 215.185 78.6191C213.179 77.151 210.082 76.417 205.893 76.417C201.667 76.417 198.48 77.3122 196.332 79.1025C194.219 80.8929 193.163 83.5605 193.163 87.1055H184.462V86.4072C184.462 80.6423 186.396 76.1126 190.263 72.8184C194.13 69.4883 199.447 67.8232 206.215 67.8232C213.484 67.8232 218.855 69.2734 222.328 72.1738C225.837 75.0742 227.592 79.568 227.592 85.6553V116.217C227.592 118.616 227.86 120.191 228.397 120.943C228.935 121.695 229.866 122.071 231.19 122.071C231.405 122.071 231.692 122.053 232.05 122.018C232.444 121.946 232.927 121.856 233.5 121.749V129.215C232.426 129.537 231.459 129.752 230.6 129.859C229.776 130.003 228.952 130.074 228.129 130.074C225.085 130.074 222.794 129.376 221.254 127.979C219.75 126.547 218.998 124.435 218.998 121.642V121.319ZM271.205 76.5244C266.622 76.5244 263.005 78.5475 260.355 82.5938C257.742 86.64 256.435 92.2438 256.435 99.4053C256.435 106.603 257.742 112.242 260.355 116.324C263.005 120.37 266.622 122.394 271.205 122.394C276.111 122.394 279.853 120.424 282.431 116.485C285.045 112.547 286.352 106.853 286.352 99.4053C286.352 91.9932 285.045 86.3356 282.431 82.4326C279.853 78.4938 276.111 76.5244 271.205 76.5244ZM286.459 119.869C284.561 123.593 282.18 126.404 279.315 128.302C276.487 130.164 273.228 131.095 269.54 131.095C262.558 131.095 256.972 128.248 252.782 122.555C248.629 116.826 246.552 109.109 246.552 99.4053C246.552 89.7373 248.629 82.0566 252.782 76.3633C256.972 70.6699 262.558 67.8232 269.54 67.8232C273.192 67.8232 276.415 68.7363 279.208 70.5625C282.037 72.3887 284.49 75.1816 286.566 78.9414V50.0449H296.181V129H286.459V119.869ZM324.916 94.1416H353.651C353.651 88.484 352.416 84.0977 349.945 80.9824C347.475 77.8672 344.019 76.3096 339.579 76.3096C335.175 76.3096 331.701 77.8672 329.159 80.9824C326.617 84.0618 325.202 88.4482 324.916 94.1416ZM324.916 102.252V102.574C324.916 108.697 326.277 113.531 328.998 117.076C331.719 120.621 335.425 122.394 340.116 122.394C343.339 122.394 346.078 121.498 348.334 119.708C350.626 117.882 352.201 115.34 353.061 112.081H362.675C361.565 117.882 358.861 122.501 354.564 125.938C350.268 129.376 345.04 131.095 338.881 131.095C331.505 131.095 325.65 128.266 321.317 122.608C316.985 116.951 314.818 109.216 314.818 99.4053C314.818 89.7373 317.021 82.0566 321.425 76.3633C325.865 70.6699 331.791 67.8232 339.203 67.8232C346.938 67.8232 352.953 70.4551 357.25 75.7188C361.583 80.9824 363.749 88.3229 363.749 97.7402C363.749 98.9935 363.731 99.9424 363.695 100.587C363.695 101.196 363.677 101.751 363.642 102.252H324.916ZM378.896 129V69.918H387.489V76.2021C388.563 73.5166 390.014 71.4577 391.84 70.0254C393.666 68.5573 395.725 67.8232 398.017 67.8232C400.702 67.8232 402.976 68.5752 404.838 70.0791C406.736 71.5472 408.096 73.6598 408.92 76.417C410.495 73.4808 412.25 71.3145 414.184 69.918C416.117 68.5215 418.319 67.8232 420.79 67.8232C424.908 67.8232 427.862 69.3451 429.652 72.3887C431.443 75.3965 432.338 80.6602 432.338 88.1797V129H423.422V87.5352C423.422 83.2025 422.992 80.1589 422.133 78.4043C421.309 76.6497 419.913 75.7725 417.943 75.7725C415.437 75.7725 413.45 77.0078 411.981 79.4785C410.513 81.9134 409.779 85.2614 409.779 89.5225V129H401.454V87.5352C401.454 83.2741 401.007 80.2484 400.111 78.458C399.252 76.6676 397.82 75.7725 395.814 75.7725C393.344 75.7725 391.392 76.9899 389.96 79.4248C388.528 81.8239 387.812 85.1898 387.812 89.5225V129H378.896ZM448.666 129V52.6768H496.2V61.915H458.817V84.7959H492.924V93.9268H458.817V119.762H497.06V129H448.666ZM549.267 108.321V98.9756C546.832 100.336 542.75 101.41 537.021 102.198C534.979 102.485 533.404 102.735 532.294 102.95C528.928 103.595 526.547 104.651 525.15 106.119C523.79 107.587 523.109 109.754 523.109 112.618C523.109 115.805 523.915 118.222 525.526 119.869C527.138 121.48 529.519 122.286 532.67 122.286C537.468 122.286 541.425 120.979 544.54 118.365C547.691 115.751 549.267 112.403 549.267 108.321ZM550.395 121.319C547.602 124.47 544.594 126.834 541.371 128.409C538.148 129.985 534.693 130.772 531.005 130.772C525.491 130.772 521.176 129.251 518.061 126.207C514.981 123.128 513.441 118.884 513.441 113.478C513.441 107.498 515.035 103.058 518.222 100.157C521.409 97.221 526.923 95.2874 534.765 94.3564C535.731 94.249 537.092 94.0879 538.847 93.873C546.008 93.0853 549.589 90.2744 549.589 85.4404C549.589 82.361 548.586 80.0872 546.581 78.6191C544.576 77.151 541.479 76.417 537.289 76.417C533.064 76.417 529.877 77.3122 527.729 79.1025C525.616 80.8929 524.56 83.5605 524.56 87.1055H515.858V86.4072C515.858 80.6423 517.792 76.1126 521.659 72.8184C525.526 69.4883 530.844 67.8232 537.611 67.8232C544.88 67.8232 550.251 69.2734 553.725 72.1738C557.234 75.0742 558.988 79.568 558.988 85.6553V116.217C558.988 118.616 559.257 120.191 559.794 120.943C560.331 121.695 561.262 122.071 562.587 122.071C562.802 122.071 563.088 122.053 563.446 122.018C563.84 121.946 564.324 121.856 564.896 121.749V129.215C563.822 129.537 562.855 129.752 561.996 129.859C561.173 130.003 560.349 130.074 559.525 130.074C556.482 130.074 554.19 129.376 552.65 127.979C551.146 126.547 550.395 124.435 550.395 121.642V121.319ZM610.497 94.5713C617.336 96.1468 621.991 98.2057 624.462 100.748C626.968 103.29 628.222 106.907 628.222 111.598C628.222 117.685 626.073 122.465 621.776 125.938C617.515 129.376 611.589 131.095 603.998 131.095C596.693 131.095 591.036 129.34 587.025 125.831C583.051 122.286 581.028 117.219 580.956 110.631H590.248C590.606 114.57 592.003 117.542 594.438 119.547C596.908 121.516 600.399 122.501 604.911 122.501C609.101 122.501 612.413 121.624 614.848 119.869C617.318 118.115 618.554 115.733 618.554 112.726C618.554 110.506 617.927 108.805 616.674 107.623C615.456 106.406 613.075 105.349 609.53 104.454L598.734 101.822C592.576 100.318 588.279 98.2952 585.844 95.7529C583.445 93.2106 582.245 89.6299 582.245 85.0107C582.245 79.7829 584.197 75.6113 588.1 72.4961C592.003 69.3809 597.302 67.8232 603.998 67.8232C610.837 67.8232 616.28 69.4346 620.326 72.6572C624.408 75.8441 626.449 80.1051 626.449 85.4404V85.6553H616.996C616.817 82.6833 615.582 80.3558 613.29 78.6729C610.998 76.9541 607.901 76.0947 603.998 76.0947C600.059 76.0947 597.051 76.8288 594.975 78.2969C592.934 79.765 591.913 81.8955 591.913 84.6885C591.913 86.6937 592.54 88.2692 593.793 89.415C595.082 90.5251 597.535 91.5098 601.151 92.3691L610.497 94.5713ZM656.312 94.1416H685.048C685.048 88.484 683.812 84.0977 681.342 80.9824C678.871 77.8672 675.416 76.3096 670.976 76.3096C666.571 76.3096 663.098 77.8672 660.556 80.9824C658.013 84.0618 656.599 88.4482 656.312 94.1416ZM656.312 102.252V102.574C656.312 108.697 657.673 113.531 660.395 117.076C663.116 120.621 666.822 122.394 671.513 122.394C674.735 122.394 677.475 121.498 679.73 119.708C682.022 117.882 683.598 115.34 684.457 112.081H694.071C692.961 117.882 690.258 122.501 685.961 125.938C681.664 129.376 676.436 131.095 670.277 131.095C662.901 131.095 657.047 128.266 652.714 122.608C648.381 116.951 646.215 109.216 646.215 99.4053C646.215 89.7373 648.417 82.0566 652.821 76.3633C657.261 70.6699 663.188 67.8232 670.6 67.8232C678.334 67.8232 684.35 70.4551 688.646 75.7188C692.979 80.9824 695.146 88.3229 695.146 97.7402C695.146 98.9935 695.128 99.9424 695.092 100.587C695.092 101.196 695.074 101.751 695.038 102.252H656.312Z" fill="#6464F0"/>
</g>
</svg>
