<svg width="180" height="180" viewBox="0 0 180 180" fill="none" xmlns="http://www.w3.org/2000/svg">
<g id="Frame 3">
<rect width="180" height="180" fill="white"/>
<path id="Ae" d="M48.3848 97.0938H69.8203L59.0781 66.4785L48.3848 97.0938ZM28.707 126L54 56.5176H64.2051L89.5957 126H80.2207L72.8965 105.59H45.2109L37.8867 126H28.707ZM106.344 94.3105H132.467C132.467 89.1673 131.344 85.1797 129.098 82.3477C126.852 79.5156 123.71 78.0996 119.674 78.0996C115.67 78.0996 112.512 79.5156 110.201 82.3477C107.89 85.1471 106.604 89.1348 106.344 94.3105ZM106.344 101.684V101.977C106.344 107.543 107.581 111.938 110.055 115.16C112.529 118.383 115.898 119.994 120.162 119.994C123.092 119.994 125.582 119.18 127.633 117.553C129.716 115.893 131.148 113.581 131.93 110.619H140.67C139.661 115.893 137.203 120.092 133.297 123.217C129.391 126.342 124.638 127.904 119.039 127.904C112.333 127.904 107.011 125.333 103.072 120.189C99.1335 115.046 97.1641 108.015 97.1641 99.0957C97.1641 90.3066 99.166 83.3242 103.17 78.1484C107.206 72.9727 112.594 70.3848 119.332 70.3848C126.363 70.3848 131.832 72.7773 135.738 77.5625C139.677 82.3477 141.646 89.0208 141.646 97.582C141.646 98.7214 141.63 99.584 141.598 100.17C141.598 100.723 141.581 101.228 141.549 101.684H106.344Z" fill="#F43F5E"/>
</g>
</svg>
