<svg width="1167" height="208" viewBox="0 0 1167 208" fill="none" xmlns="http://www.w3.org/2000/svg">
<rect width="1167" height="208" fill="none"/>
<g id="Frame 1">
<rect width="1167" height="208" fill="none"/>
<g id="RouteRover">
<path class="letter" id="Vector" d="M1066.87 166V69.16H1093.69V96.52L1089.91 88.6C1092.79 81.76 1097.41 76.6 1103.77 73.12C1110.13 69.52 1117.87 67.72 1126.99 67.72V93.64C1125.79 93.52 1124.71 93.46 1123.75 93.46C1122.79 93.34 1121.77 93.28 1120.69 93.28C1113.01 93.28 1106.77 95.5 1101.97 99.94C1097.29 104.26 1094.95 111.04 1094.95 120.28V166H1066.87Z" fill="#3b82f6"/>
<path class="letter" id="Vector_2" d="M1001.37 167.44C990.333 167.44 980.613 165.28 972.213 160.96C963.933 156.64 957.513 150.76 952.953 143.32C948.393 135.76 946.113 127.18 946.113 117.58C946.113 107.86 948.333 99.28 952.773 91.84C957.333 84.28 963.513 78.4 971.313 74.2C979.113 69.88 987.933 67.72 997.773 67.72C1007.25 67.72 1015.77 69.76 1023.33 73.84C1031.01 77.8 1037.07 83.56 1041.51 91.12C1045.95 98.56 1048.17 107.5 1048.17 117.94C1048.17 119.02 1048.11 120.28 1047.99 121.72C1047.87 123.04 1047.75 124.3 1047.63 125.5H968.973V109.12H1032.87L1022.07 113.98C1022.07 108.94 1021.05 104.56 1019.01 100.84C1016.97 97.12 1014.15 94.24 1010.55 92.2C1006.95 90.04 1002.75 88.96 997.953 88.96C993.153 88.96 988.893 90.04 985.173 92.2C981.573 94.24 978.753 97.18 976.713 101.02C974.673 104.74 973.653 109.18 973.653 114.34V118.66C973.653 123.94 974.793 128.62 977.073 132.7C979.473 136.66 982.773 139.72 986.973 141.88C991.293 143.92 996.333 144.94 1002.09 144.94C1007.25 144.94 1011.75 144.16 1015.59 142.6C1019.55 141.04 1023.15 138.7 1026.39 135.58L1041.33 151.78C1036.89 156.82 1031.31 160.72 1024.59 163.48C1017.87 166.12 1010.13 167.44 1001.37 167.44Z" fill="#3b82f6"/>
<path class="letter" id="Vector_3" d="M874.652 166L833.972 69.16H862.952L896.792 152.5H882.392L917.492 69.16H944.492L903.632 166H874.652Z" fill="#3b82f6"/>
<path class="letter" id="Vector_4" d="M779.139 167.44C768.819 167.44 759.639 165.28 751.599 160.96C743.679 156.64 737.379 150.76 732.699 143.32C728.139 135.76 725.859 127.18 725.859 117.58C725.859 107.86 728.139 99.28 732.699 91.84C737.379 84.28 743.679 78.4 751.599 74.2C759.639 69.88 768.819 67.72 779.139 67.72C789.339 67.72 798.459 69.88 806.499 74.2C814.539 78.4 820.839 84.22 825.399 91.66C829.959 99.1 832.239 107.74 832.239 117.58C832.239 127.18 829.959 135.76 825.399 143.32C820.839 150.76 814.539 156.64 806.499 160.96C798.459 165.28 789.339 167.44 779.139 167.44ZM779.139 144.4C783.819 144.4 788.019 143.32 791.739 141.16C795.459 139 798.399 135.94 800.559 131.98C802.719 127.9 803.799 123.1 803.799 117.58C803.799 111.94 802.719 107.14 800.559 103.18C798.399 99.22 795.459 96.16 791.739 94C788.019 91.84 783.819 90.76 779.139 90.76C774.459 90.76 770.259 91.84 766.539 94C762.819 96.16 759.819 99.22 757.539 103.18C755.379 107.14 754.299 111.94 754.299 117.58C754.299 123.1 755.379 127.9 757.539 131.98C759.819 135.94 762.819 139 766.539 141.16C770.259 143.32 774.459 144.4 779.139 144.4Z" fill="#3b82f6"/>
<path class="letter" id="Vector_5" d="M602.676 166V40H657.216C668.496 40 678.216 41.86 686.376 45.58C694.536 49.18 700.836 54.4 705.276 61.24C709.716 68.08 711.936 76.24 711.936 85.72C711.936 95.08 709.716 103.18 705.276 110.02C700.836 116.74 694.536 121.9 686.376 125.5C678.216 129.1 668.496 130.9 657.216 130.9H618.876L631.836 118.12V166H602.676ZM682.776 166L651.276 120.28H682.416L714.276 166H682.776ZM631.836 121.36L618.876 107.68H655.596C664.596 107.68 671.316 105.76 675.756 101.92C680.196 97.96 682.416 92.56 682.416 85.72C682.416 78.76 680.196 73.36 675.756 69.52C671.316 65.68 664.596 63.76 655.596 63.76H618.876L631.836 49.9V121.36Z" fill="#3b82f6"/>
<path class="letter" id="Vector_6" d="M535.201 167.44C524.161 167.44 514.441 165.28 506.041 160.96C497.761 156.64 491.341 150.76 486.781 143.32C482.221 135.76 479.941 127.18 479.941 117.58C479.941 107.86 482.161 99.28 486.601 91.84C491.161 84.28 497.341 78.4 505.141 74.2C512.941 69.88 521.761 67.72 531.601 67.72C541.081 67.72 549.601 69.76 557.161 73.84C564.841 77.8 570.901 83.56 575.341 91.12C579.781 98.56 582.001 107.5 582.001 117.94C582.001 119.02 581.941 120.28 581.821 121.72C581.701 123.04 581.581 124.3 581.461 125.5H502.801V109.12H566.701L555.901 113.98C555.901 108.94 554.881 104.56 552.841 100.84C550.801 97.12 547.981 94.24 544.381 92.2C540.781 90.04 536.581 88.96 531.781 88.96C526.981 88.96 522.721 90.04 519.001 92.2C515.401 94.24 512.581 97.18 510.541 101.02C508.501 104.74 507.481 109.18 507.481 114.34V118.66C507.481 123.94 508.621 128.62 510.901 132.7C513.301 136.66 516.601 139.72 520.801 141.88C525.121 143.92 530.161 144.94 535.921 144.94C541.081 144.94 545.581 144.16 549.421 142.6C553.381 141.04 556.981 138.7 560.221 135.58L575.161 151.78C570.721 156.82 565.141 160.72 558.421 163.48C551.701 166.12 543.961 167.44 535.201 167.44Z" fill="#3b82f6"/>
<path class="letter" id="Vector_7" d="M451.507 167.44C440.107 167.44 431.227 164.56 424.867 158.8C418.507 152.92 415.327 144.22 415.327 132.7V47.74H443.407V132.34C443.407 136.42 444.487 139.6 446.647 141.88C448.807 144.04 451.747 145.12 455.467 145.12C459.907 145.12 463.687 143.92 466.807 141.52L474.367 161.32C471.487 163.36 468.007 164.92 463.927 166C459.967 166.96 455.827 167.44 451.507 167.44ZM400.387 92.92V71.32H467.527V92.92H400.387Z" fill="#3b82f6"/>
<path class="letter" id="Vector_8" d="M329.192 167.44C321.152 167.44 313.952 165.88 307.592 162.76C301.352 159.64 296.492 154.9 293.012 148.54C289.532 142.06 287.792 133.84 287.792 123.88V69.16H315.872V119.74C315.872 127.78 317.552 133.72 320.912 137.56C324.392 141.28 329.252 143.14 335.492 143.14C339.812 143.14 343.652 142.24 347.012 140.44C350.372 138.52 353.012 135.64 354.932 131.8C356.852 127.84 357.812 122.92 357.812 117.04V69.16H385.892V166H359.252V139.36L364.112 147.1C360.872 153.82 356.072 158.92 349.712 162.4C343.472 165.76 336.632 167.44 329.192 167.44Z" fill="#3b82f6"/>
<path class="letter" id="Vector_9" d="M216.463 167.44C206.143 167.44 196.963 165.28 188.923 160.96C181.003 156.64 174.703 150.76 170.023 143.32C165.463 135.76 163.183 127.18 163.183 117.58C163.183 107.86 165.463 99.28 170.023 91.84C174.703 84.28 181.003 78.4 188.923 74.2C196.963 69.88 206.143 67.72 216.463 67.72C226.663 67.72 235.783 69.88 243.823 74.2C251.863 78.4 258.163 84.22 262.723 91.66C267.283 99.1 269.563 107.74 269.563 117.58C269.563 127.18 267.283 135.76 262.723 143.32C258.163 150.76 251.863 156.64 243.823 160.96C235.783 165.28 226.663 167.44 216.463 167.44ZM216.463 144.4C221.143 144.4 225.343 143.32 229.063 141.16C232.783 139 235.723 135.94 237.883 131.98C240.043 127.9 241.123 123.1 241.123 117.58C241.123 111.94 240.043 107.14 237.883 103.18C235.723 99.22 232.783 96.16 229.063 94C225.343 91.84 221.143 90.76 216.463 90.76C211.783 90.76 207.583 91.84 203.863 94C200.143 96.16 197.143 99.22 194.863 103.18C192.703 107.14 191.623 111.94 191.623 117.58C191.623 123.1 192.703 127.9 194.863 131.98C197.143 135.94 200.143 139 203.863 141.16C207.583 143.32 211.783 144.4 216.463 144.4Z" fill="#3b82f6"/>
<path class="letter" id="Vector_10" d="M40 166V40H94.54C105.82 40 115.54 41.86 123.7 45.58C131.86 49.18 138.16 54.4 142.6 61.24C147.04 68.08 149.26 76.24 149.26 85.72C149.26 95.08 147.04 103.18 142.6 110.02C138.16 116.74 131.86 121.9 123.7 125.5C115.54 129.1 105.82 130.9 94.54 130.9H56.2L69.16 118.12V166H40ZM120.1 166L88.6 120.28H119.74L151.6 166H120.1ZM69.16 121.36L56.2 107.68H92.92C101.92 107.68 108.64 105.76 113.08 101.92C117.52 97.96 119.74 92.56 119.74 85.72C119.74 78.76 117.52 73.36 113.08 69.52C108.64 65.68 101.92 63.76 92.92 63.76H56.2L69.16 49.9V121.36Z" fill="#3b82f6"/>
</g>
</g>
</svg>
